<svg width="141" height="23" viewBox="0 0 141 23" fill="none" xmlns="http://www.w3.org/2000/svg">
<path d="M8.25 8.88792H8.61011L8.72423 8.54637L11 1.73509L13.2758 8.54637L13.3899 8.88792H13.75H20.572L14.8131 13.4842L14.5401 13.7021L14.6508 14.0335L16.8647 20.6595L11.3119 16.2278L11 15.9788L10.6881 16.2278L5.13534 20.6595L7.34923 14.0335L7.45993 13.7021L7.1869 13.4842L1.42801 8.88792H8.25Z" fill="#FFEC3E" stroke="#B5B5B5"/>
<path d="M38.25 8.88792H38.6101L38.7242 8.54637L41 1.73509L43.2758 8.54637L43.3899 8.88792H43.75H50.572L44.8131 13.4842L44.5401 13.7021L44.6508 14.0335L46.8647 20.6595L41.3119 16.2278L41 15.9788L40.6881 16.2278L35.1353 20.6595L37.3492 14.0335L37.4599 13.7021L37.1869 13.4842L31.428 8.88792H38.25Z" fill="#FFEC3E" stroke="#B5B5B5"/>
<path d="M69.25 8.88792H69.6101L69.7242 8.54637L72 1.73509L74.2758 8.54637L74.3899 8.88792H74.75H81.572L75.8131 13.4842L75.5401 13.7021L75.6508 14.0335L77.8647 20.6595L72.3119 16.2278L72 15.9788L71.6881 16.2278L66.1353 20.6595L68.3492 14.0335L68.4599 13.7021L68.1869 13.4842L62.428 8.88792H69.25Z" fill="#FFEC3E" stroke="#B5B5B5"/>
<path d="M98.25 8.88792H98.6101L98.7242 8.54637L101 1.73509L103.276 8.54637L103.39 8.88792H103.75H110.572L104.813 13.4842L104.54 13.7021L104.651 14.0335L106.865 20.6595L101.312 16.2278L101 15.9788L100.688 16.2278L95.1353 20.6595L97.3492 14.0335L97.4599 13.7021L97.1869 13.4842L91.428 8.88792H98.25Z" fill="#FFEC3E" stroke="#B5B5B5"/>
<path d="M127.25 8.88792H127.61L127.724 8.54637L130 1.73509L132.276 8.54637L132.39 8.88792H132.75H139.572L133.813 13.4842L133.54 13.7021L133.651 14.0335L135.865 20.6595L130.312 16.2278L130 15.9788L129.688 16.2278L124.135 20.6595L126.349 14.0335L126.46 13.7021L126.187 13.4842L120.428 8.88792H127.25Z" fill="url(#paint0_linear_49_371)" stroke="#B5B5B5"/>
<defs>
<linearGradient id="paint0_linear_49_371" x1="119" y1="7.63968" x2="135.5" y2="7.13851" gradientUnits="userSpaceOnUse">
<stop offset="0.489583" stop-color="#FFEC3E"/>
<stop offset="0.640625" stop-color="#E7E7E7" stop-opacity="0"/>
</linearGradient>
</defs>
</svg>
